<mxfile host="app.diagrams.net" agent="Mozilla/5.0 (Windows NT 10.0; Win64; x64) AppleWebKit/537.36 (KHTML, like Gecko) Chrome/141.0.0.0 Safari/537.36" version="28.2.7">
  <diagram name="Página-1" id="yu2dQkcyGhnfvE4CtIoT">
    <mxGraphModel dx="2037" dy="1070" grid="1" gridSize="10" guides="1" tooltips="1" connect="1" arrows="1" fold="1" page="1" pageScale="1" pageWidth="827" pageHeight="1169" math="0" shadow="0">
      <root>
        <mxCell id="0" />
        <mxCell id="1" parent="0" />
        <mxCell id="SRW6IgIUiJh4BxVU2CjJ-3" value="" style="rounded=0;whiteSpace=wrap;html=1;" parent="1" vertex="1">
          <mxGeometry x="100" y="50" width="240" height="90" as="geometry" />
        </mxCell>
        <mxCell id="SRW6IgIUiJh4BxVU2CjJ-4" value="&lt;span style=&quot;font-size: 22px;&quot;&gt;Interface Web&lt;/span&gt;" style="text;html=1;whiteSpace=wrap;strokeColor=none;fillColor=none;align=center;verticalAlign=middle;rounded=0;" parent="1" vertex="1">
          <mxGeometry x="110" y="55" width="170" height="80" as="geometry" />
        </mxCell>
        <mxCell id="SRW6IgIUiJh4BxVU2CjJ-5" value="" style="shape=module;align=left;spacingLeft=20;align=center;verticalAlign=top;whiteSpace=wrap;html=1;" parent="1" vertex="1">
          <mxGeometry x="270" y="60" width="60" height="40" as="geometry" />
        </mxCell>
        <mxCell id="SRW6IgIUiJh4BxVU2CjJ-6" value="" style="endArrow=classic;html=1;rounded=0;exitX=0.5;exitY=1;exitDx=0;exitDy=0;entryX=0.75;entryY=0;entryDx=0;entryDy=0;" parent="1" source="SRW6IgIUiJh4BxVU2CjJ-3" target="SRW6IgIUiJh4BxVU2CjJ-8" edge="1">
          <mxGeometry width="50" height="50" relative="1" as="geometry">
            <mxPoint x="330" y="150" as="sourcePoint" />
            <mxPoint x="367.25" y="210" as="targetPoint" />
          </mxGeometry>
        </mxCell>
        <mxCell id="SRW6IgIUiJh4BxVU2CjJ-7" value="" style="rounded=0;whiteSpace=wrap;html=1;" parent="1" vertex="1">
          <mxGeometry x="230" y="280" width="520" height="370" as="geometry" />
        </mxCell>
        <mxCell id="SRW6IgIUiJh4BxVU2CjJ-8" value="&lt;span style=&quot;font-size: 22px;&quot;&gt;BackEnd/ApiRest&lt;/span&gt;" style="text;html=1;whiteSpace=wrap;strokeColor=none;fillColor=none;align=center;verticalAlign=middle;rounded=0;" parent="1" vertex="1">
          <mxGeometry x="255" y="305" width="170" height="80" as="geometry" />
        </mxCell>
        <mxCell id="SRW6IgIUiJh4BxVU2CjJ-10" value="" style="shape=module;align=left;spacingLeft=20;align=center;verticalAlign=top;whiteSpace=wrap;html=1;" parent="1" vertex="1">
          <mxGeometry x="670" y="330" width="60" height="40" as="geometry" />
        </mxCell>
        <mxCell id="SRW6IgIUiJh4BxVU2CjJ-35" style="edgeStyle=orthogonalEdgeStyle;rounded=0;orthogonalLoop=1;jettySize=auto;html=1;entryX=0.5;entryY=0;entryDx=0;entryDy=0;entryPerimeter=0;" parent="1" source="SRW6IgIUiJh4BxVU2CjJ-19" target="SRW6IgIUiJh4BxVU2CjJ-30" edge="1">
          <mxGeometry relative="1" as="geometry">
            <mxPoint x="520" y="760.0000000000002" as="targetPoint" />
          </mxGeometry>
        </mxCell>
        <mxCell id="SRW6IgIUiJh4BxVU2CjJ-19" value="" style="rounded=0;whiteSpace=wrap;html=1;" parent="1" vertex="1">
          <mxGeometry x="520" y="420" width="200" height="90" as="geometry" />
        </mxCell>
        <mxCell id="SRW6IgIUiJh4BxVU2CjJ-20" value="Atletas" style="text;html=1;whiteSpace=wrap;strokeColor=none;fillColor=none;align=center;verticalAlign=middle;rounded=0;fontSize=28;" parent="1" vertex="1">
          <mxGeometry x="490" y="425" width="170" height="80" as="geometry" />
        </mxCell>
        <mxCell id="SRW6IgIUiJh4BxVU2CjJ-21" value="" style="shape=module;align=left;spacingLeft=20;align=center;verticalAlign=top;whiteSpace=wrap;html=1;" parent="1" vertex="1">
          <mxGeometry x="660" y="440" width="40" height="30" as="geometry" />
        </mxCell>
        <mxCell id="SRW6IgIUiJh4BxVU2CjJ-33" style="edgeStyle=orthogonalEdgeStyle;rounded=0;orthogonalLoop=1;jettySize=auto;html=1;" parent="1" source="SRW6IgIUiJh4BxVU2CjJ-22" target="SRW6IgIUiJh4BxVU2CjJ-30" edge="1">
          <mxGeometry relative="1" as="geometry" />
        </mxCell>
        <mxCell id="SRW6IgIUiJh4BxVU2CjJ-22" value="" style="rounded=0;whiteSpace=wrap;html=1;" parent="1" vertex="1">
          <mxGeometry x="240" y="450" width="240" height="90" as="geometry" />
        </mxCell>
        <mxCell id="SRW6IgIUiJh4BxVU2CjJ-23" value="&lt;span&gt;Federeção&lt;/span&gt;" style="text;html=1;whiteSpace=wrap;strokeColor=none;fillColor=none;align=center;verticalAlign=middle;rounded=0;fontSize=25;" parent="1" vertex="1">
          <mxGeometry x="240" y="450" width="170" height="80" as="geometry" />
        </mxCell>
        <mxCell id="SRW6IgIUiJh4BxVU2CjJ-24" value="" style="shape=module;align=left;spacingLeft=20;align=center;verticalAlign=top;whiteSpace=wrap;html=1;" parent="1" vertex="1">
          <mxGeometry x="410" y="460" width="60" height="40" as="geometry" />
        </mxCell>
        <mxCell id="SRW6IgIUiJh4BxVU2CjJ-34" style="edgeStyle=orthogonalEdgeStyle;rounded=0;orthogonalLoop=1;jettySize=auto;html=1;" parent="1" source="SRW6IgIUiJh4BxVU2CjJ-25" target="SRW6IgIUiJh4BxVU2CjJ-30" edge="1">
          <mxGeometry relative="1" as="geometry" />
        </mxCell>
        <mxCell id="SRW6IgIUiJh4BxVU2CjJ-25" value="" style="rounded=0;whiteSpace=wrap;html=1;" parent="1" vertex="1">
          <mxGeometry x="540" y="555" width="190" height="90" as="geometry" />
        </mxCell>
        <mxCell id="SRW6IgIUiJh4BxVU2CjJ-26" value="&lt;span&gt;COI&lt;/span&gt;" style="text;html=1;whiteSpace=wrap;strokeColor=none;fillColor=none;align=center;verticalAlign=middle;rounded=0;fontSize=26;" parent="1" vertex="1">
          <mxGeometry x="550" y="560" width="110" height="80" as="geometry" />
        </mxCell>
        <mxCell id="SRW6IgIUiJh4BxVU2CjJ-27" value="" style="shape=module;align=left;spacingLeft=20;align=center;verticalAlign=top;whiteSpace=wrap;html=1;" parent="1" vertex="1">
          <mxGeometry x="660" y="565" width="60" height="40" as="geometry" />
        </mxCell>
        <mxCell id="SRW6IgIUiJh4BxVU2CjJ-30" value="" style="shape=cylinder3;whiteSpace=wrap;html=1;boundedLbl=1;backgroundOutline=1;size=15;" parent="1" vertex="1">
          <mxGeometry x="70" y="750" width="130" height="140" as="geometry" />
        </mxCell>
        <mxCell id="SRW6IgIUiJh4BxVU2CjJ-31" value="&lt;font style=&quot;font-size: 23px;&quot;&gt;Postgresql&lt;/font&gt;" style="text;html=1;whiteSpace=wrap;strokeColor=none;fillColor=none;align=center;verticalAlign=middle;rounded=0;fontSize=15;" parent="1" vertex="1">
          <mxGeometry x="100" y="900" width="75" height="50" as="geometry" />
        </mxCell>
      </root>
    </mxGraphModel>
  </diagram>
</mxfile>
